<?xml version="1.0" encoding="utf-8"?>
<!-- Generator: Adobe Illustrator 23.0.1, SVG Export Plug-In . SVG Version: 6.00 Build 0)  -->
<svg version="1.1" id="Layer_1" xmlns="http://www.w3.org/2000/svg" xmlns:xlink="http://www.w3.org/1999/xlink" x="0px" y="0px"
	 viewBox="0 0 22 23" style="enable-background:new 0 0 22 23;" xml:space="preserve">
<style type="text/css">
	.st0{opacity:0.4;fill:#E7E7F2;}
</style>
<path class="st0" d="M21.5,21.3c0,0.3-0.1,0.6-0.3,0.8s-0.5,0.3-0.8,0.3H1.7c-0.3,0-0.6-0.1-0.8-0.3c-0.2-0.2-0.3-0.5-0.3-0.8V9.1
	c0-0.2,0-0.4,0.1-0.5C0.7,8.4,0.8,8.3,1,8.2l9.3-7.3c0.2-0.2,0.5-0.2,0.7-0.2s0.5,0.1,0.7,0.2L21,8.2c0.1,0.1,0.3,0.2,0.3,0.4
	c0.1,0.2,0.1,0.3,0.1,0.5V21.3z M19.2,20.2V9.6L11,3.3L2.8,9.6v10.5H19.2z"/>
</svg>
