<?xml version="1.0" encoding="utf-8"?>
<!-- Generator: Adobe Illustrator 23.0.1, SVG Export Plug-In . SVG Version: 6.00 Build 0)  -->
<svg version="1.1" id="Layer_1" xmlns="http://www.w3.org/2000/svg" xmlns:xlink="http://www.w3.org/1999/xlink" x="0px" y="0px"
	 viewBox="0 0 20 25" style="enable-background:new 0 0 20 25;" xml:space="preserve">
<style type="text/css">
	.st0{opacity:0.6;fill:#E7E7F2;}
</style>
<path class="st0" d="M19.3,24.7H17v-2.3c0-0.9-0.4-1.8-1-2.5c-0.7-0.7-1.5-1-2.5-1h-7c-0.9,0-1.8,0.4-2.5,1c-0.7,0.7-1,1.5-1,2.5
	v2.3H0.7v-2.3c0-1.5,0.6-3,1.7-4.1c1.1-1.1,2.6-1.7,4.1-1.7h7c1.5,0,3,0.6,4.1,1.7c1.1,1.1,1.7,2.6,1.7,4.1V24.7z M10,14.2
	c-0.9,0-1.8-0.2-2.7-0.5c-0.8-0.4-1.6-0.9-2.3-1.5c-0.7-0.6-1.2-1.4-1.5-2.3C3.2,9,3,8.1,3,7.2s0.2-1.8,0.5-2.7
	c0.4-0.8,0.9-1.6,1.5-2.3s1.4-1.2,2.3-1.5C8.2,0.3,9.1,0.2,10,0.2c1.9,0,3.6,0.7,4.9,2.1C16.3,3.5,17,5.3,17,7.2
	c0,1.9-0.7,3.6-2.1,4.9C13.6,13.4,11.9,14.2,10,14.2z M10,11.8c1.2,0,2.4-0.5,3.3-1.4c0.9-0.9,1.4-2.1,1.4-3.3s-0.5-2.4-1.4-3.3
	C12.4,3,11.2,2.5,10,2.5C8.8,2.5,7.6,3,6.7,3.9S5.3,5.9,5.3,7.2s0.5,2.4,1.4,3.3C7.6,11.3,8.8,11.8,10,11.8z"/>
</svg>
